<?xml version="1.0" encoding="UTF-8"?>
<svg width="300" height="300" version="1.1" viewBox="0 0 300 300" xmlns="http://www.w3.org/2000/svg">
 <g>
  <g transform="matrix(1.2687 0 0 1.1855 -40.31 -27.831)" stroke="#7d7da6" stroke-linecap="round" stroke-linejoin="round">
   <path d="m211.89 99.08v138.64h-123.78v-175.44h91.182z" fill="#fff" stroke-width="7"/>
   <path d="m179.7 62.579 31.825 36.074h-31.886l0.0561-36.078" fill="#7d7da6" stroke-width="6"/>
  </g>
 </g>
 <g transform="matrix(.99905 0 0 .99905 -.88729 -3.6934)">
  <path d="m160.59 158.26s-6.2321-0.40398-12.569 22.543c-2.6742 17.495-0.99372 37.793-0.99372 37.793" fill="none" stroke="#ece2d0" stroke-linecap="round" stroke-linejoin="bevel" stroke-width="6.622"/>
  <path d="m170.85 132.58c0.0211 1.5492 1.1075 4.1656 0.67804 5.7185-0.46449 1.6795-2.4583 2.2922-2.7377 3.8764-0.45251 2.5652 1.6794 5.9089 1.0048 8.3218-1.1606 4.1513-1.9358 7.1141-4.582 9.4575-1.7338 1.5354-4.2694 3.2276-5.4878 5.1788-2.3392 3.7464-1.1657 6.0771-2.6343 9.0622-1.8642 3.7892-6.0656 7.786-6.0656 7.786s-15.488-11.227-20.203-30.636c-0.78477-3.2307 1.269-6.688 1.0334-10.358-0.0516-0.80428-2.1756-3.8372-2.191-4.6573-0.0864-4.6153 1.1949-5.7657 1.8234-9.8887 0.18494-1.2134-0.76043-5.5476-0.47653-6.7371 0.35985-1.5077 2.0037-2.9996 2.2737-4.4846 0.28547-1.5699-1.7243-4.1185-1.3183-5.5384 0.97445-3.4078 3.8017-7.1719 5.1186-11.281 0.76959-2.4016-0.0948-5.6953 0.80953-7.0584 3.7584-5.6647 7.0978-6.7568 12.109-6.9631 3.6822-0.15161 7.7306 0.82098 11.157 3.1262 2.1423 1.4412 3.8824 3.085 5.6291 6.2828 0.92629 1.6958 0.26427 4.5712 0.96993 7.1759 0.92066 3.3984 3.1604 6.7029 4.0283 10.058 1.0284 3.976-1.2608 6.484-0.95246 11.062 0.0975 1.4468 1.5572 4.5865 1.5633 6.0908 5e-3 1.3574-1.5701 2.8964-1.5496 4.4059z" fill="#d5b9b2" stroke-linecap="round" stroke-linejoin="round" stroke-width="2.3366"/>
  <g>
   <path d="m159.73 208.36c-5.253 9.9398-14.202 14.953-14.202 14.953s-1.2336-6.3859 4.0193-16.326c5.253-9.9398 7.2536-5.4301 11.499-15.324 0 0 3.9366 6.7578-1.3164 16.698z" fill="#aac688"/>
   <path d="m151.63 203.51c-0.56692 11.228-6.5638 19.549-6.5638 19.549s-3.8136-5.2686-3.2466-16.497c0.56692-11.228 3.9564-18.746 3.9564-18.746s6.4209 4.4649 5.854 15.693z" fill="#aad688"/>
   <path d="m142.18 202.46c4.6337 10.243 3.1091 20.386 3.1091 20.386s-5.8017-2.9396-10.435-13.183c-4.6337-10.243-5.0603-18.478-5.0603-18.478s7.7523 1.0319 12.386 11.275z" fill="#aad688"/>
  </g>
 </g>
</svg>
